<mxfile host="app.diagrams.net" agent="Mozilla/5.0 (Windows NT 10.0; Win64; x64) AppleWebKit/537.36 (KHTML, like Gecko) Chrome/130.0.0.0 YaBrowser/24.12.0.0 Safari/537.36" version="26.0.11">
  <diagram name="Страница — 1" id="MPMm1eI1Ft_ISID8WYvf">
    <mxGraphModel dx="2807" dy="-50" grid="1" gridSize="10" guides="1" tooltips="1" connect="1" arrows="1" fold="1" page="1" pageScale="1" pageWidth="827" pageHeight="1169" math="0" shadow="0">
      <root>
        <mxCell id="0" />
        <mxCell id="1" parent="0" />
        <mxCell id="N3k6STzHIilujwQApR0L-1" value="" style="edgeStyle=orthogonalEdgeStyle;rounded=0;orthogonalLoop=1;jettySize=auto;html=1;" parent="1" target="G-o-oH731uGH1hRGJI2F-56" edge="1">
          <mxGeometry relative="1" as="geometry">
            <mxPoint x="60" y="1430" as="sourcePoint" />
          </mxGeometry>
        </mxCell>
        <mxCell id="G-o-oH731uGH1hRGJI2F-61" value="" style="edgeStyle=orthogonalEdgeStyle;rounded=0;orthogonalLoop=1;jettySize=auto;html=1;" parent="1" source="G-o-oH731uGH1hRGJI2F-56" target="G-o-oH731uGH1hRGJI2F-60" edge="1">
          <mxGeometry relative="1" as="geometry" />
        </mxCell>
        <mxCell id="G-o-oH731uGH1hRGJI2F-62" value="Нет" style="edgeLabel;html=1;align=center;verticalAlign=middle;resizable=0;points=[];" parent="G-o-oH731uGH1hRGJI2F-61" vertex="1" connectable="0">
          <mxGeometry x="-0.2571" y="1" relative="1" as="geometry">
            <mxPoint as="offset" />
          </mxGeometry>
        </mxCell>
        <mxCell id="G-o-oH731uGH1hRGJI2F-64" style="edgeStyle=orthogonalEdgeStyle;rounded=0;orthogonalLoop=1;jettySize=auto;html=1;entryX=0.5;entryY=0;entryDx=0;entryDy=0;" parent="1" source="G-o-oH731uGH1hRGJI2F-56" target="G-o-oH731uGH1hRGJI2F-63" edge="1">
          <mxGeometry relative="1" as="geometry" />
        </mxCell>
        <mxCell id="XAamDHpVPTtj73vhy42u-2" value="Да" style="edgeLabel;html=1;align=center;verticalAlign=middle;resizable=0;points=[];" parent="G-o-oH731uGH1hRGJI2F-64" vertex="1" connectable="0">
          <mxGeometry x="-0.2619" y="1" relative="1" as="geometry">
            <mxPoint as="offset" />
          </mxGeometry>
        </mxCell>
        <mxCell id="G-o-oH731uGH1hRGJI2F-56" value="Расстояние&amp;gt;25?" style="rhombus;whiteSpace=wrap;html=1;" parent="1" vertex="1">
          <mxGeometry x="-5" y="1450" width="130" height="130" as="geometry" />
        </mxCell>
        <mxCell id="XAamDHpVPTtj73vhy42u-7" style="edgeStyle=orthogonalEdgeStyle;rounded=0;orthogonalLoop=1;jettySize=auto;html=1;entryX=0.5;entryY=0;entryDx=0;entryDy=0;" parent="1" source="G-o-oH731uGH1hRGJI2F-60" target="XAamDHpVPTtj73vhy42u-6" edge="1">
          <mxGeometry relative="1" as="geometry" />
        </mxCell>
        <mxCell id="XAamDHpVPTtj73vhy42u-21" value="Нет" style="edgeLabel;html=1;align=center;verticalAlign=middle;resizable=0;points=[];" parent="XAamDHpVPTtj73vhy42u-7" vertex="1" connectable="0">
          <mxGeometry x="-0.3035" y="1" relative="1" as="geometry">
            <mxPoint as="offset" />
          </mxGeometry>
        </mxCell>
        <mxCell id="G-o-oH731uGH1hRGJI2F-60" value="Расстояние&amp;lt;25?" style="rhombus;whiteSpace=wrap;html=1;" parent="1" vertex="1">
          <mxGeometry x="215" y="1590" width="130" height="130" as="geometry" />
        </mxCell>
        <mxCell id="XAamDHpVPTtj73vhy42u-1" style="edgeStyle=orthogonalEdgeStyle;rounded=0;orthogonalLoop=1;jettySize=auto;html=1;entryX=0;entryY=0.5;entryDx=0;entryDy=0;exitX=0;exitY=0.5;exitDx=0;exitDy=0;" parent="1" source="G-o-oH731uGH1hRGJI2F-63" target="G-o-oH731uGH1hRGJI2F-56" edge="1">
          <mxGeometry relative="1" as="geometry" />
        </mxCell>
        <mxCell id="G-o-oH731uGH1hRGJI2F-63" value="Снятие показаний с&amp;nbsp; датчика расстояния" style="rounded=0;whiteSpace=wrap;html=1;" parent="1" vertex="1">
          <mxGeometry y="1640" width="120" height="60" as="geometry" />
        </mxCell>
        <mxCell id="XAamDHpVPTtj73vhy42u-5" style="edgeStyle=orthogonalEdgeStyle;rounded=0;orthogonalLoop=1;jettySize=auto;html=1;entryX=0;entryY=0.5;entryDx=0;entryDy=0;exitX=0;exitY=0.5;exitDx=0;exitDy=0;" parent="1" source="XAamDHpVPTtj73vhy42u-3" target="G-o-oH731uGH1hRGJI2F-60" edge="1">
          <mxGeometry relative="1" as="geometry" />
        </mxCell>
        <mxCell id="XAamDHpVPTtj73vhy42u-3" value="Снятие показаний с&amp;nbsp; датчика расстояния" style="rounded=0;whiteSpace=wrap;html=1;" parent="1" vertex="1">
          <mxGeometry x="220" y="1770" width="120" height="60" as="geometry" />
        </mxCell>
        <mxCell id="XAamDHpVPTtj73vhy42u-4" style="edgeStyle=orthogonalEdgeStyle;rounded=0;orthogonalLoop=1;jettySize=auto;html=1;entryX=0.5;entryY=0;entryDx=0;entryDy=0;" parent="1" source="G-o-oH731uGH1hRGJI2F-60" target="XAamDHpVPTtj73vhy42u-3" edge="1">
          <mxGeometry relative="1" as="geometry" />
        </mxCell>
        <mxCell id="XAamDHpVPTtj73vhy42u-20" value="Да" style="edgeLabel;html=1;align=center;verticalAlign=middle;resizable=0;points=[];" parent="XAamDHpVPTtj73vhy42u-4" vertex="1" connectable="0">
          <mxGeometry x="-0.2589" y="1" relative="1" as="geometry">
            <mxPoint as="offset" />
          </mxGeometry>
        </mxCell>
        <mxCell id="N3k6STzHIilujwQApR0L-20" value="" style="edgeStyle=orthogonalEdgeStyle;rounded=0;orthogonalLoop=1;jettySize=auto;html=1;" parent="1" source="XAamDHpVPTtj73vhy42u-6" target="N3k6STzHIilujwQApR0L-19" edge="1">
          <mxGeometry relative="1" as="geometry" />
        </mxCell>
        <mxCell id="XAamDHpVPTtj73vhy42u-6" value="Закрытие калитки сервоприводом" style="rounded=0;whiteSpace=wrap;html=1;" parent="1" vertex="1">
          <mxGeometry x="440" y="1680" width="120" height="60" as="geometry" />
        </mxCell>
        <mxCell id="XAamDHpVPTtj73vhy42u-8" value="Конец цикла" style="shape=loopLimit;whiteSpace=wrap;html=1;direction=west;" parent="1" vertex="1">
          <mxGeometry x="-50" y="2040" width="100" height="80" as="geometry" />
        </mxCell>
        <mxCell id="N3k6STzHIilujwQApR0L-2" value="" style="endArrow=none;html=1;rounded=0;" parent="1" edge="1">
          <mxGeometry width="50" height="50" relative="1" as="geometry">
            <mxPoint x="90" y="1480" as="sourcePoint" />
            <mxPoint x="130" y="1440" as="targetPoint" />
          </mxGeometry>
        </mxCell>
        <mxCell id="N3k6STzHIilujwQApR0L-3" value="" style="endArrow=none;html=1;rounded=0;" parent="1" edge="1">
          <mxGeometry width="50" height="50" relative="1" as="geometry">
            <mxPoint x="130" y="1440" as="sourcePoint" />
            <mxPoint x="320" y="1440" as="targetPoint" />
          </mxGeometry>
        </mxCell>
        <mxCell id="N3k6STzHIilujwQApR0L-4" value="" style="endArrow=none;html=1;rounded=0;" parent="1" edge="1">
          <mxGeometry width="50" height="50" relative="1" as="geometry">
            <mxPoint x="320" y="1520" as="sourcePoint" />
            <mxPoint x="320" y="1360" as="targetPoint" />
            <Array as="points">
              <mxPoint x="320" y="1430" />
            </Array>
          </mxGeometry>
        </mxCell>
        <mxCell id="N3k6STzHIilujwQApR0L-5" value="Ожидание появления человека в зоне видимости датчика(Сигнал о входе человека в створку калитки)" style="text;html=1;align=center;verticalAlign=middle;whiteSpace=wrap;rounded=0;" parent="1" vertex="1">
          <mxGeometry x="340" y="1420" width="60" height="30" as="geometry" />
        </mxCell>
        <mxCell id="N3k6STzHIilujwQApR0L-6" value="" style="endArrow=none;html=1;rounded=0;" parent="1" edge="1">
          <mxGeometry width="50" height="50" relative="1" as="geometry">
            <mxPoint x="320" y="1360" as="sourcePoint" />
            <mxPoint x="400" y="1360" as="targetPoint" />
          </mxGeometry>
        </mxCell>
        <mxCell id="N3k6STzHIilujwQApR0L-7" value="" style="endArrow=none;html=1;rounded=0;" parent="1" edge="1">
          <mxGeometry width="50" height="50" relative="1" as="geometry">
            <mxPoint x="320" y="1520" as="sourcePoint" />
            <mxPoint x="400" y="1520" as="targetPoint" />
          </mxGeometry>
        </mxCell>
        <mxCell id="N3k6STzHIilujwQApR0L-8" value="" style="endArrow=none;html=1;rounded=0;" parent="1" edge="1">
          <mxGeometry width="50" height="50" relative="1" as="geometry">
            <mxPoint x="320" y="1630" as="sourcePoint" />
            <mxPoint x="390" y="1560" as="targetPoint" />
          </mxGeometry>
        </mxCell>
        <mxCell id="N3k6STzHIilujwQApR0L-9" value="" style="endArrow=none;html=1;rounded=0;" parent="1" edge="1">
          <mxGeometry width="50" height="50" relative="1" as="geometry">
            <mxPoint x="390" y="1560" as="sourcePoint" />
            <mxPoint x="520" y="1560" as="targetPoint" />
          </mxGeometry>
        </mxCell>
        <mxCell id="N3k6STzHIilujwQApR0L-10" value="" style="endArrow=none;html=1;rounded=0;" parent="1" edge="1">
          <mxGeometry width="50" height="50" relative="1" as="geometry">
            <mxPoint x="520" y="1640" as="sourcePoint" />
            <mxPoint x="520" y="1480" as="targetPoint" />
            <Array as="points">
              <mxPoint x="520" y="1560" />
            </Array>
          </mxGeometry>
        </mxCell>
        <mxCell id="N3k6STzHIilujwQApR0L-11" value="" style="endArrow=none;html=1;rounded=0;" parent="1" edge="1">
          <mxGeometry width="50" height="50" relative="1" as="geometry">
            <mxPoint x="520" y="1640" as="sourcePoint" />
            <mxPoint x="600" y="1640" as="targetPoint" />
          </mxGeometry>
        </mxCell>
        <mxCell id="N3k6STzHIilujwQApR0L-12" value="" style="endArrow=none;html=1;rounded=0;" parent="1" edge="1">
          <mxGeometry width="50" height="50" relative="1" as="geometry">
            <mxPoint x="520" y="1480" as="sourcePoint" />
            <mxPoint x="600" y="1480" as="targetPoint" />
          </mxGeometry>
        </mxCell>
        <mxCell id="N3k6STzHIilujwQApR0L-13" value="Ожидание ухода человека из зоны видимости датчика(Сигнал о выходе человека из створки калитки)" style="text;html=1;align=center;verticalAlign=middle;whiteSpace=wrap;rounded=0;" parent="1" vertex="1">
          <mxGeometry x="540" y="1540" width="60" height="30" as="geometry" />
        </mxCell>
        <mxCell id="N3k6STzHIilujwQApR0L-24" style="edgeStyle=orthogonalEdgeStyle;rounded=0;orthogonalLoop=1;jettySize=auto;html=1;exitX=0.5;exitY=1;exitDx=0;exitDy=0;" parent="1" source="N3k6STzHIilujwQApR0L-19" edge="1">
          <mxGeometry relative="1" as="geometry">
            <mxPoint x="250" y="1918" as="targetPoint" />
            <mxPoint x="500.0000000000002" y="1828.0000000000002" as="sourcePoint" />
            <Array as="points">
              <mxPoint x="500" y="1878" />
              <mxPoint x="250" y="1878" />
            </Array>
          </mxGeometry>
        </mxCell>
        <mxCell id="N3k6STzHIilujwQApR0L-19" value="Замыкание соленоида" style="rounded=0;whiteSpace=wrap;html=1;" parent="1" vertex="1">
          <mxGeometry x="440" y="1770" width="120" height="60" as="geometry" />
        </mxCell>
        <mxCell id="N3k6STzHIilujwQApR0L-23" value="" style="shape=link;html=1;rounded=0;" parent="1" edge="1">
          <mxGeometry width="100" relative="1" as="geometry">
            <mxPoint x="-440" y="1920" as="sourcePoint" />
            <mxPoint x="440" y="1920" as="targetPoint" />
          </mxGeometry>
        </mxCell>
        <mxCell id="N3k6STzHIilujwQApR0L-31" style="edgeStyle=orthogonalEdgeStyle;rounded=0;orthogonalLoop=1;jettySize=auto;html=1;" parent="1" edge="1">
          <mxGeometry relative="1" as="geometry">
            <mxPoint x="-260" y="1918" as="targetPoint" />
            <mxPoint x="-260" y="1430" as="sourcePoint" />
            <Array as="points">
              <mxPoint x="-260" y="1918" />
            </Array>
          </mxGeometry>
        </mxCell>
        <mxCell id="N3k6STzHIilujwQApR0L-33" value="" style="endArrow=classic;html=1;rounded=0;entryX=0.5;entryY=1;entryDx=0;entryDy=0;" parent="1" target="XAamDHpVPTtj73vhy42u-8" edge="1">
          <mxGeometry width="50" height="50" relative="1" as="geometry">
            <mxPoint y="1922" as="sourcePoint" />
            <mxPoint y="2032" as="targetPoint" />
          </mxGeometry>
        </mxCell>
        <mxCell id="ir_-guBBp1bQLPYkxnE_-2" value="3" style="ellipse;whiteSpace=wrap;html=1;aspect=fixed;" vertex="1" parent="1">
          <mxGeometry x="-270" y="1410" width="20" height="20" as="geometry" />
        </mxCell>
        <mxCell id="ir_-guBBp1bQLPYkxnE_-3" value="4" style="ellipse;whiteSpace=wrap;html=1;aspect=fixed;" vertex="1" parent="1">
          <mxGeometry x="50" y="1410" width="20" height="20" as="geometry" />
        </mxCell>
      </root>
    </mxGraphModel>
  </diagram>
</mxfile>
